HIERARCHY
ROOT Hips
{
	OFFSET 0.00000 0.00000 0.00000
	CHANNELS 6 Xposition Yposition Zposition Yrotation Zrotation Xrotation 
	JOINT Lumbar
	{
		OFFSET 0 0 0
		CHANNELS 3 Zrotation Xrotation Yrotation
		JOINT Neck
		{
			OFFSET 0.00 0.2701 0.00
			CHANNELS 3 Zrotation Xrotation Yrotation
			End Site
			{
				OFFSET 0.00 0.1379 0.00
			}
		}
		JOINT RightShoulder
		{
			OFFSET 0.0119 0.2289 0.1181
			CHANNELS 3 Zrotation Xrotation Yrotation
			JOINT RightElbow
			{
				OFFSET 0.00 -0.1475 0.00
				CHANNELS 2 Zrotation Yrotation
				JOINT RightWrist
				{
					OFFSET 0.00 -0.1605 0.00
					CHANNELS 2 Zrotation Xrotation
					End Site
					{
						OFFSET 0.0040 -0.1068 0.0006
					}
				}
			}
		}
		JOINT LeftShoulder
		{
			OFFSET 0.0119 0.2289 -0.1181
			CHANNELS 3 Zrotation Xrotation Yrotation
			JOINT LeftElbow
			{
				OFFSET 0.00 -0.1475 0.00
				CHANNELS 2 Zrotation Yrotation
				JOINT LeftWrist
				{
					OFFSET 0.00 -0.1605 0.00
					CHANNELS 2 Zrotation Xrotation
					End Site
					{
						OFFSET 0.0040 -0.1068 -0.0006
					}
				}
			}
		}
	}
	JOINT RightHip
	{
		OFFSET 0.0316 -0.0424 0.0458
		CHANNELS 3 Zrotation Xrotation Yrotation
		JOINT RightKnee
		{
			OFFSET 0.00 -0.2438 0.00
			CHANNELS 1 Zrotation
			JOINT RightAnkle
			{
				OFFSET 0.00 -0.2449 0.00
				CHANNELS 3 Zrotation Xrotation Yrotation
				End Site
				{
					OFFSET 0.1237 -0.0542 0.0051
				}
			}
		}
	}
	JOINT LeftHip
	{
		OFFSET 0.0316 -0.0424 -0.0458
		CHANNELS 3 Zrotation Xrotation Yrotation
		JOINT LeftKnee
		{
			OFFSET 0.00 -0.2438 0.00
			CHANNELS 1 Zrotation
			JOINT LeftAnkle
			{
				OFFSET 0.00 -0.2449 0.00
				CHANNELS 3 Zrotation Xrotation Yrotation
				End Site
				{
					OFFSET 0.1237 -0.0542 -0.0051
				}
			}
		}
	}
}
MOTION
Frames: 17
Frame Time: 0.02
0 0.57926 0 192.01697 0 -2.49311 7.649 4.20187 -2.56369 -7.35188 -1.49158 -5.00235 15.69974 -10.23723 7.46334 12.96361 82.69661 -2.96535 -5.42445 18.96563 12.096 0.72965 14.09777 -82.35747 -6.41049 4.43936 -5.50646 7.47002 4.75812 -2.90329 2.33753 -3.71061 -4.37023 -2.6716 2.46253 -15.32168 -6.79307 6.9565 6.02678 7.81779
-2e-05 0.57924 -0.00027 192.06296 0 -2.47602 7.68548 4.17517 -2.50431 -7.40639 -1.45834 -4.85962 15.3048 -10.19999 7.30149 12.82601 82.54916 -2.84046 -5.3182 18.78902 11.95057 0.8854 13.85641 -82.11713 -6.14085 4.31267 -5.48279 7.48351 4.75412 -2.94797 2.36711 -3.71953 -4.4069 -2.69906 2.36712 -17.22583 -6.79484 6.79666 5.98416 9.6836
-4e-05 0.57922 -0.00054 192.10814 0 -2.45909 7.72154 4.14898 -2.44462 -7.46038 -1.42568 -4.71719 14.9072 -10.16223 7.13188 12.68622 82.40169 -2.71584 -5.21072 18.60747 11.80702 1.0503 13.61402 -81.87655 -5.87286 4.18531 -5.4595 7.49717 4.75588 -2.99199 2.39577 -3.72955 -4.44862 -2.72619 2.27306 -19.10651 -6.79672 6.63891 5.94246 11.52668
-6e-05 0.57919 -0.00081 192.14983 0 -2.44261 7.75659 4.1244 -2.3827 -7.51307 -1.3952 -4.57436 14.4992 -10.12211 6.94354 12.53905 82.25459 -2.59106 -5.09936 18.41035 11.66935 1.23707 13.36804 -81.63682 -5.60796 4.0542 -5.43752 7.51182 4.79543 -3.03382 2.41941 -3.74705 -4.52495 -2.75223 2.18373 -20.90498 -6.79902 6.48841 5.90485 13.29085
-7e-05 0.57917 -0.00108 192.20916 0 -2.42371 7.79733 4.0911 -2.33212 -7.57295 -1.35342 -4.43339 14.1512 -10.09462 6.87126 12.43419 82.1078 -2.46708 -5.01106 18.30287 11.50025 1.28817 13.14449 -81.39753 -5.32565 3.94313 -5.40862 7.52145 4.65253 -3.0873 2.46769 -3.72846 -4.43474 -2.784 2.06965 -23.13065 -6.79904 6.30004 5.84656 15.46559
-0.00011 0.57914 -0.00136 192.2317 0 -2.40995 7.82576 4.07639 -2.2579 -7.61735 -1.33542 -4.28881 13.67331 -10.04032 6.54211 12.23778 81.95896 -2.34156 -4.87238 18.00106 11.398 1.63962 12.87141 -81.1542 -5.08116 3.7897 -5.39437 7.54151 4.88363 -3.11607 2.46514 -3.78382 -4.68546 -2.80361 2.0078 -24.45617 -6.80395 6.19159 5.83141 16.77485
-0.00022 0.5791 -0.00163 192.14483 0 -2.41074 7.82157 4.11357 -2.11152 -7.62035 -1.38647 -4.12836 12.83778 -9.90862 5.56243 11.7926 81.81289 -2.20825 -4.59986 17.17471 11.48254 2.75277 12.46871 -80.92202 -4.93219 3.51121 -5.42181 7.59368 6.29665 -3.07495 2.30548 -4.07352 -6.01902 -2.78898 2.09587 -23.19267 -6.82243 6.31214 5.94504 15.5985
-0.00036 0.57906 -0.00191 192.02223 0 -2.41667 7.80464 4.16947 -1.94237 -7.60734 -1.46105 -3.96517 11.86986 -9.75024 4.31026 11.25421 81.66289 -2.07412 -4.27528 16.14896 11.63422 4.18585 12.0145 -80.68239 -4.82295 3.19115 -5.46379 7.65589 8.06343 -3.00924 2.0972 -4.43311 -7.6744 -2.76213 2.23575 -21.0376 -6.84586 6.51197 6.10065 13.56422
-0.00049 0.57901 -0.00218 191.92086 0 -2.42001 7.79266 4.21648 -1.7879 -7.60093 -1.52263 -3.80685 10.96092 -9.60613 3.14477 10.75464 81.50924 -1.94222 -3.97061 15.20552 11.75388 5.51428 11.57834 -80.43007 -4.70108 2.89495 -5.49844 7.71131 9.57057 -2.95565 1.92217 -4.74094 -9.08961 -2.74131 2.34828 -19.35634 -6.86698 6.67031 6.2308 11.98362
-0.00063 0.57897 -0.00246 191.79817 0 -2.4244 7.78436 4.26505 -1.61516 -7.59791 -1.59362 -3.63325 10.05765 -9.45326 2.14136 10.26815 81.3792 -1.80159 -3.68146 14.29745 11.88 6.65826 11.16377 -80.24155 -4.55605 2.57769 -5.53635 7.77581 11.48653 -2.89766 1.70103 -5.13132 -10.89231 -2.71864 2.47671 -17.38702 -6.88832 6.85175 6.38753 10.1357
-0.00075 0.57893 -0.00273 191.71174 0 -2.42783 7.76519 4.31487 -1.47511 -7.58337 -1.651 -3.49081 9.11043 -9.31197 0.72919 9.73469 81.19823 -1.68007 -3.34804 13.2681 12.00851 8.27788 10.69333 -79.92351 -4.46904 2.2946 -5.57064 7.82416 12.64548 -2.8435 1.56318 -5.36865 -11.97532 -2.6967 2.5845 -15.80397 -6.91043 7.00384 6.49932 8.63847
-0.00084 0.57889 -0.00295 191.73138 0 -2.42735 7.7205 4.36311 -1.43032 -7.54649 -1.66179 -3.43493 8.08031 -9.21195 -1.6919 9.07357 80.8843 -1.60185 -2.90157 11.95489 12.12836 11.00121 10.07021 -79.20512 -4.52929 2.11452 -5.59397 7.82252 11.53943 -2.80152 1.67714 -5.14684 -10.90037 -2.68151 2.6213 -15.52258 -6.93338 7.05603 6.4729 8.33949
-0.00091 0.57885 -0.00317 191.78934 0 -2.42575 7.66503 4.41211 -1.41918 -7.49747 -1.65878 -3.41041 7.00987 -9.12399 -4.52573 8.37238 80.51785 -1.54473 -2.41313 10.52659 12.24823 14.21676 9.39506 -78.36472 -4.64696 1.97069 -5.61266 7.80488 9.67677 -2.765 1.87458 -4.77236 -9.1083 -2.667 2.63574 -15.65773 -6.95718 7.07587 6.40053 8.41946
-0.00099 0.57882 -0.00339 191.83154 0 -2.42462 7.61362 4.46098 -1.39322 -7.4504 -1.66408 -3.37175 5.9533 -9.02871 -7.20445 7.703 80.17121 -1.48425 -1.94604 9.14884 12.36712 17.29315 8.75052 -77.60965 -4.7407 1.81106 -5.63177 7.79641 8.21716 -2.72892 2.02751 -4.48036 -7.70349 -2.65122 2.6613 -15.59075 -6.98036 7.11016 6.35171 8.31265
-0.00109 0.57878 -0.00361 191.86528 0 -2.42372 7.5654 4.50936 -1.36511 -7.41802 -1.66117 -3.33292 4.90896 -8.94028 -9.75225 6.97251 79.84214 -1.39728 -1.46699 7.76942 12.49181 20.02371 8.0733 -76.72907 -4.82751 1.64651 -5.65854 7.78006 6.51612 -2.67989 2.20716 -4.13498 -6.04646 -2.6397 2.68475 -15.54589 -7.00378 7.14821 6.29306 8.23679
-0.00114 0.57875 -0.00384 191.9265 0 -2.42213 7.508 4.55897 -1.34897 -7.35214 -1.67229 -3.30141 3.83373 -8.84079 -12.67141 6.36155 79.46332 -1.37068 -1.00422 6.37136 12.60437 23.58741 7.4543 -76.0799 -4.94086 1.50216 -5.66804 7.77648 5.13846 -2.65917 2.35077 -3.86427 -4.74576 -2.61886 2.70648 -15.56667 -7.028 7.16981 6.24346 8.1984
-0.00107 0.57877 -0.00411 192.0524 0 -2.41796 7.4289 4.60956 -1.36401 -7.19809 -1.72149 -3.28663 2.66398 -8.70852 -16.4771 6.08634 78.96743 -1.50458 -0.592 4.92932 12.67767 29.32065 6.99355 -76.10796 -5.12214 1.39725 -5.63059 7.80956 4.79363 -2.71841 2.38209 -3.83056 -4.55428 -2.57784 2.72959 -15.6626 -7.04573 7.15243 6.22959 8.16919
